<?xml version="1.0" encoding="utf-8"?>
<!-- Generator: Adobe Illustrator 21.1.0, SVG Export Plug-In . SVG Version: 6.00 Build 0)  -->
<svg version="1.1" id="linkedin" xmlns="http://www.w3.org/2000/svg" xmlns:xlink="http://www.w3.org/1999/xlink" x="0px" y="0px"
	 viewBox="0 0 100 100" style="enable-background:new 0 0 100 100;" xml:space="preserve">
<style type="text/css">
	.st0{fill:#0399FF;}
	.st1{fill:#FFFFFF;}
</style>
<circle class="st0" cx="50" cy="50" r="48"/>
<g>
	<path id="Dribbble" class="st1" d="M50,21.1C34,21.1,21.1,34,21.1,50C21.1,66,34,78.9,50,78.9S78.9,66,78.9,50
		C78.9,34,66,21.1,50,21.1z M67.7,36.1c2.8,3.6,4.6,8,4.8,12.9c-3.3-0.7-6.3-1-9.2-1v0h0c-2.3,0-4.5,0.2-6.5,0.6
		c-0.5-1.2-1-2.4-1.5-3.5C59.8,43,64.2,40.1,67.7,36.1z M50,27.4c5.3,0,10.2,1.9,14.1,5c-3,3.5-6.9,6.1-11.1,7.9
		c-3-5.7-5.8-9.8-7.8-12.3C46.8,27.6,48.4,27.4,50,27.4z M40,29.8c1.6,1.8,4.7,5.9,8,12.3c-6.8,2-13.7,2.5-17.8,2.5
		c-0.1,0-0.2,0-0.4,0h0c-0.7,0-1.3,0-1.8,0C29.7,38.1,34.2,32.7,40,29.8z M27.4,50c0-0.1,0-0.2,0-0.3c0.6,0,1.5,0,2.5,0h0
		c4.5,0,12.5-0.4,20.5-2.9c0.4,1,0.9,2,1.3,3c-5.4,1.8-9.6,4.6-12.7,7.5c-3,2.7-5,5.4-6.2,7.3C29.5,60.6,27.4,55.5,27.4,50z
		 M50,72.6c-5,0-9.6-1.7-13.4-4.4c0.8-1.3,2.5-3.8,5.2-6.4c2.8-2.7,6.7-5.4,11.7-7.1c1.7,4.8,3.3,10.3,4.5,16.5
		C55.5,72,52.8,72.6,50,72.6z M62.8,68.6c-1.1-5.6-2.6-10.7-4.2-15.2c1.5-0.2,3-0.3,4.6-0.3h0.1h0h0c2.7,0,5.6,0.3,8.9,1.1
		C71,60.1,67.6,65.2,62.8,68.6z"/>
</g>
</svg>
